<?xml version="1.0" encoding="iso-8859-1"?>
<!-- Generator: Adobe Illustrator 16.0.0, SVG Export Plug-In . SVG Version: 6.00 Build 0)  -->
<!DOCTYPE svg PUBLIC "-//W3C//DTD SVG 1.1//EN" "http://www.w3.org/Graphics/SVG/1.1/DTD/svg11.dtd">
<svg version="1.1" id="Capa_1" xmlns="http://www.w3.org/2000/svg" xmlns:xlink="http://www.w3.org/1999/xlink" x="0px" y="0px"
	 width="765.231px" height="765.23px" viewBox="0 0 765.231 765.23" style="enable-background:new 0 0 765.231 765.23;"
	 xml:space="preserve">
<g>
	<path d="M686.012,245.771C662.006,98.492,475.786,6.914,467.914,3.069c-9.898-4.65-21.407-3.975-30.708,1.74
		c-9.248,5.846-14.86,16.004-14.86,26.915v492.416c-36.526-23.589-85.758-38.112-141.121-38.112
		c-114.7,0-204.615,61.364-204.615,139.589c0,78.328,89.915,139.613,204.615,139.613c114.726,0,204.667-61.285,204.667-139.613
		c0-0.987-0.363-1.845-0.467-2.858c0.104-0.728,0.467-1.351,0.467-2.104V86.957c50.141,32.761,125.17,93.578,137.458,169.257
		c8.418,51.804-15.172,105.347-70.171,159.072c-12.496,12.236-12.729,32.345-0.468,44.919c12.185,12.548,32.319,12.808,44.894,0.493
		C668.293,391.593,698.067,319.318,686.012,245.771z M281.225,701.711c-83.134,0-141.095-40.086-141.095-76.094
		c0-35.956,57.934-76.068,141.095-76.068c83.109,0,141.121,40.086,141.121,76.068C422.345,661.599,364.333,701.711,281.225,701.711z
		"/>
</g>
<g>
</g>
<g>
</g>
<g>
</g>
<g>
</g>
<g>
</g>
<g>
</g>
<g>
</g>
<g>
</g>
<g>
</g>
<g>
</g>
<g>
</g>
<g>
</g>
<g>
</g>
<g>
</g>
<g>
</g>
</svg>
